<svg width="60" height="11" viewBox="0 0 60 11" fill="none" xmlns="http://www.w3.org/2000/svg">
<path fill-rule="evenodd" clip-rule="evenodd" d="M1.61776 6.66342V4.39148H0.828125V3.15944L1.71066 3.09162L1.90807 1.59961H3.32477V3.09162H4.70663V4.39148H3.32477V6.64081C3.32477 7.27379 3.61507 7.53376 4.06795 7.53376C4.25375 7.53376 4.46277 7.47724 4.61373 7.42073L4.88081 8.63016C4.57889 8.72059 4.16085 8.83362 3.60346 8.83362C2.17515 8.83362 1.61776 7.96328 1.61776 6.66342ZM5.37891 5.89389C5.37891 4.07409 6.71432 2.95508 8.09618 2.95508C9.73351 2.95508 10.5464 4.1193 10.5464 5.64523C10.5464 5.93911 10.5115 6.21038 10.4767 6.34602H7.02785C7.17881 7.19376 7.75942 7.56676 8.52583 7.56676C8.95549 7.56676 9.35031 7.44242 9.76835 7.19376L10.3373 8.19973C9.74512 8.59534 8.97871 8.83271 8.29359 8.83271C6.64464 8.83271 5.37891 7.74761 5.37891 5.89389ZM7.01758 5.31906H9.09618C9.09618 4.67478 8.81748 4.22266 8.13236 4.22266C7.59819 4.22266 7.1337 4.57305 7.01758 5.31906ZM11.7305 8.69707V3.09072H13.1239L13.2401 3.80281H13.2865C13.7742 3.35069 14.3548 2.95508 15.1329 2.95508C16.387 2.95508 16.9212 3.81412 16.9212 5.21571V8.69707H15.2142V5.43047C15.2142 4.61664 14.9935 4.36797 14.5058 4.36797C14.0761 4.36797 13.8091 4.56012 13.4375 4.91052V8.69707H11.7305ZM18.608 6.66341V4.39148H17.8184V3.15944L18.7009 3.09162L18.8983 1.59961H20.3151V3.09162H21.6969V4.39148H20.3151V6.6408C20.3151 7.27378 20.6054 7.53375 21.0583 7.53375C21.2441 7.53375 21.4531 7.47723 21.604 7.42072L21.8711 8.63015C21.5692 8.72058 21.1512 8.83361 20.5938 8.83361C19.1654 8.83361 18.608 7.96327 18.608 6.66341ZM23.7837 8.69913L22.3438 3.09277H24.0391L24.5965 5.6925C24.6894 6.24635 24.7591 6.7889 24.852 7.35406H24.8985C25.003 6.7889 25.0959 6.22374 25.2352 5.6925L25.8739 3.09277H27.3486L27.9989 5.6925C28.1383 6.24635 28.2428 6.7889 28.3589 7.35406H28.4054C28.5099 6.7889 28.5679 6.24635 28.6724 5.6925L29.2182 3.09277H30.7975L29.4156 8.69913H27.4183L26.8958 6.46111C26.7796 5.94116 26.6867 5.42122 26.5822 4.82215H26.5358C26.4313 5.42122 26.35 5.94116 26.2455 6.46111L25.7345 8.69913H23.7837ZM31.4023 5.89389C31.4023 4.07409 32.7378 2.95508 34.1196 2.95508C35.757 2.95508 36.5698 4.1193 36.5698 5.64523C36.5698 5.93911 36.535 6.21038 36.5001 6.34602H33.0513C33.2022 7.19376 33.7829 7.56676 34.5493 7.56676C34.9789 7.56676 35.3737 7.44242 35.7918 7.19376L36.3608 8.19973C35.7686 8.59534 35.0022 8.83271 34.317 8.83271C32.6681 8.83271 31.4023 7.74761 31.4023 5.89389ZM33.041 5.31906H35.1196C35.1196 4.67478 34.8409 4.22266 34.1558 4.22266C33.6216 4.22266 33.1571 4.57305 33.041 5.31906ZM37.7539 8.69707V3.09072H39.1474L39.2635 3.80281H39.31C39.7977 3.35069 40.3783 2.95508 41.1563 2.95508C42.4104 2.95508 42.9446 3.81412 42.9446 5.21571V8.69707H41.2376V5.43047C41.2376 4.61664 41.017 4.36797 40.5292 4.36797C40.0996 4.36797 39.8325 4.56012 39.4609 4.91052V8.69707H37.7539ZM44.6295 6.66342V4.39148H43.8398V3.15944L44.7224 3.09162L44.9198 1.59961H46.3365V3.09162H47.7183V4.39148H46.3365V6.64081C46.3365 7.27379 46.6268 7.53376 47.0797 7.53376C47.2655 7.53376 47.4745 7.47724 47.6254 7.42073L47.8925 8.63016C47.5906 8.72059 47.1726 8.83362 46.6152 8.83362C45.1869 8.83362 44.6295 7.96328 44.6295 6.66342ZM48.9737 9.51296C49.0782 9.53556 49.2291 9.58078 49.3569 9.58078C49.9259 9.58078 50.2162 9.28689 50.3671 8.84607L50.4484 8.55219L48.2305 3.09277H49.9491L50.7736 5.50034C50.9361 6.00898 51.0755 6.54023 51.2264 7.09408H51.2729C51.4006 6.56284 51.5284 6.03159 51.6677 5.50034L52.3644 3.09277H54.0018L52.0045 8.75565C51.4587 10.1685 50.8432 10.8919 49.4846 10.8919C49.1362 10.8919 48.904 10.8467 48.6717 10.7789L48.9737 9.51296ZM55.8594 4.75343L55.151 4.25609L55.8362 3.08057L54.582 2.52671L54.8491 1.71289L56.1961 1.98416L56.3471 0.650391H57.2412L57.3922 1.99546L58.7276 1.71289L59.0063 2.52671L57.7522 3.08057L58.4373 4.25609L57.729 4.75343L56.8 3.74745L55.8594 4.75343Z" fill="black"/>
</svg>
