<svg width="20" height="20" viewBox="0 0 20 20" fill="none" xmlns="http://www.w3.org/2000/svg">
<path fill-rule="evenodd" clip-rule="evenodd" d="M10.3154 0.80957C15.422 0.80957 19.5684 4.95591 19.5684 10.0625C19.5684 15.1691 15.422 19.3154 10.3154 19.3154C5.20884 19.3154 1.0625 15.1691 1.0625 10.0625C1.0625 4.95591 5.20884 0.80957 10.3154 0.80957ZM10.3041 12.6328C9.8168 12.6389 9.51762 13.0933 9.28733 13.4594C8.79075 14.2479 8.25408 15.0838 7.79144 15.787C7.63208 16.0317 7.4573 16.2291 7.16532 16.2311C6.87231 16.2332 6.62454 15.8785 6.76539 15.5814C7.14168 14.7907 8.77328 11.9429 8.77328 9.54845C8.77328 8.7198 8.33222 8.52035 7.74517 8.52035H5.68897C5.40521 8.52035 5.17491 8.29005 5.17491 8.00629C5.17491 7.72254 5.40521 7.49224 5.68897 7.49224H14.9419C15.2257 7.49224 15.4559 7.72254 15.4559 8.00629C15.4559 8.29005 15.2257 8.52035 14.9419 8.52035H12.8857C12.2997 8.52035 11.8576 8.7198 11.8576 9.54845C11.8576 11.9429 13.4892 14.7907 13.8655 15.5814C14.0063 15.8785 13.7596 16.2332 13.4655 16.2311C13.1736 16.2291 12.9988 16.0317 12.8394 15.787C12.3768 15.0838 11.8391 14.2479 11.3435 13.4594C11.1112 13.0903 10.8089 12.6307 10.3154 12.6328H10.3041ZM10.3154 3.89388C11.1667 3.89388 11.8576 4.58477 11.8576 5.43604C11.8576 6.2873 11.1667 6.97819 10.3154 6.97819C9.46416 6.97819 8.77328 6.2873 8.77328 5.43604C8.77328 4.58477 9.46416 3.89388 10.3154 3.89388Z" fill="black"/>
</svg>
